<mxfile host="app.diagrams.net" agent="Mozilla/5.0 (Windows NT 10.0; Win64; x64) AppleWebKit/537.36 (KHTML, like Gecko) Chrome/129.0.0.0 Safari/537.36" version="24.7.17">
  <diagram name="Page-1" id="-H_mtQnk-PTXWXPvYvuk">
    <mxGraphModel dx="2870" dy="1683" grid="1" gridSize="10" guides="1" tooltips="1" connect="1" arrows="0" fold="1" page="1" pageScale="1" pageWidth="4681" pageHeight="3300" math="0" shadow="0">
      <root>
        <mxCell id="0" />
        <mxCell id="1" parent="0" />
        <mxCell id="fnRWYfsaQO0EPqaBbEek-17" value="" style="rounded=0;whiteSpace=wrap;html=1;align=left;" parent="1" vertex="1">
          <mxGeometry x="70" y="80" width="955" height="630" as="geometry" />
        </mxCell>
        <mxCell id="fnRWYfsaQO0EPqaBbEek-18" value="pymongo-api" style="rounded=1;whiteSpace=wrap;html=1;" parent="1" vertex="1">
          <mxGeometry x="295" y="160" width="120" height="60" as="geometry" />
        </mxCell>
        <mxCell id="fnRWYfsaQO0EPqaBbEek-19" style="edgeStyle=orthogonalEdgeStyle;rounded=0;orthogonalLoop=1;jettySize=auto;html=1;exitX=0.5;exitY=1;exitDx=0;exitDy=0;" parent="1" source="fnRWYfsaQO0EPqaBbEek-18" target="fnRWYfsaQO0EPqaBbEek-28" edge="1">
          <mxGeometry relative="1" as="geometry" />
        </mxCell>
        <mxCell id="fnRWYfsaQO0EPqaBbEek-20" value="" style="edgeStyle=orthogonalEdgeStyle;rounded=0;orthogonalLoop=1;jettySize=auto;html=1;entryX=0;entryY=0.5;entryDx=0;entryDy=0;" parent="1" source="fnRWYfsaQO0EPqaBbEek-21" target="gZ_beA-vXtJLZaEBM_sQ-23" edge="1">
          <mxGeometry relative="1" as="geometry">
            <mxPoint x="535" y="442" as="targetPoint" />
          </mxGeometry>
        </mxCell>
        <mxCell id="fnRWYfsaQO0EPqaBbEek-21" value="mongo&amp;nbsp;&lt;div&gt;&lt;span style=&quot;white-space-collapse: preserve;&quot; data-src-align=&quot;0:13&quot; class=&quot;EzKURWReUAB5oZgtQNkl&quot;&gt;router &lt;/span&gt;&lt;/div&gt;" style="rounded=0;whiteSpace=wrap;html=1;" parent="1" vertex="1">
          <mxGeometry x="297.5" y="467" width="115" height="100" as="geometry" />
        </mxCell>
        <mxCell id="fnRWYfsaQO0EPqaBbEek-22" style="edgeStyle=orthogonalEdgeStyle;rounded=0;orthogonalLoop=1;jettySize=auto;html=1;entryX=1;entryY=0.5;entryDx=0;entryDy=0;" parent="1" source="fnRWYfsaQO0EPqaBbEek-23" target="fnRWYfsaQO0EPqaBbEek-28" edge="1">
          <mxGeometry relative="1" as="geometry" />
        </mxCell>
        <mxCell id="fnRWYfsaQO0EPqaBbEek-23" value="configSrv&lt;div&gt;(&lt;font style=&quot;font-size: 12px;&quot;&gt;&lt;span style=&quot;text-wrap: nowrap; background-color: rgb(255, 255, 255);&quot;&gt;данные&lt;br&gt;&lt;/span&gt;&lt;span style=&quot;text-wrap: nowrap; background-color: initial;&quot;&gt;&amp;nbsp;о кластере&lt;/span&gt;&lt;/font&gt;)&lt;/div&gt;" style="rounded=0;whiteSpace=wrap;html=1;" parent="1" vertex="1">
          <mxGeometry x="615" y="145" width="120" height="60" as="geometry" />
        </mxCell>
        <mxCell id="fnRWYfsaQO0EPqaBbEek-24" style="edgeStyle=orthogonalEdgeStyle;rounded=0;orthogonalLoop=1;jettySize=auto;html=1;" parent="1" source="fnRWYfsaQO0EPqaBbEek-21" target="gZ_beA-vXtJLZaEBM_sQ-27" edge="1">
          <mxGeometry relative="1" as="geometry">
            <mxPoint x="536" y="577.5" as="targetPoint" />
          </mxGeometry>
        </mxCell>
        <mxCell id="fnRWYfsaQO0EPqaBbEek-25" value="sprint2 task 2 -&amp;nbsp;sharding + replication" style="text;html=1;align=center;verticalAlign=middle;whiteSpace=wrap;rounded=0;" parent="1" vertex="1">
          <mxGeometry x="125" y="105" width="150" height="30" as="geometry" />
        </mxCell>
        <mxCell id="fnRWYfsaQO0EPqaBbEek-26" value="User" style="shape=umlActor;verticalLabelPosition=bottom;verticalAlign=top;html=1;outlineConnect=0;" parent="1" vertex="1">
          <mxGeometry x="135" y="160" width="30" height="60" as="geometry" />
        </mxCell>
        <mxCell id="fnRWYfsaQO0EPqaBbEek-27" style="edgeStyle=orthogonalEdgeStyle;rounded=0;orthogonalLoop=1;jettySize=auto;html=1;exitX=0.5;exitY=0.5;exitDx=0;exitDy=0;exitPerimeter=0;entryX=0;entryY=0.5;entryDx=0;entryDy=0;" parent="1" source="fnRWYfsaQO0EPqaBbEek-26" target="fnRWYfsaQO0EPqaBbEek-18" edge="1">
          <mxGeometry relative="1" as="geometry">
            <mxPoint x="170" y="-90" as="sourcePoint" />
            <mxPoint x="345" y="-90" as="targetPoint" />
          </mxGeometry>
        </mxCell>
        <mxCell id="fnRWYfsaQO0EPqaBbEek-28" value="mongo&amp;nbsp;&lt;div&gt;&lt;span style=&quot;white-space-collapse: preserve;&quot; data-src-align=&quot;0:13&quot; class=&quot;EzKURWReUAB5oZgtQNkl&quot;&gt;driver&lt;/span&gt;&lt;/div&gt;" style="rounded=0;whiteSpace=wrap;html=1;" parent="1" vertex="1">
          <mxGeometry x="297.5" y="298" width="115" height="100" as="geometry" />
        </mxCell>
        <mxCell id="fnRWYfsaQO0EPqaBbEek-29" style="edgeStyle=orthogonalEdgeStyle;rounded=0;orthogonalLoop=1;jettySize=auto;html=1;exitX=0.5;exitY=1;exitDx=0;exitDy=0;entryX=0.5;entryY=0;entryDx=0;entryDy=0;" parent="1" source="fnRWYfsaQO0EPqaBbEek-28" target="fnRWYfsaQO0EPqaBbEek-21" edge="1">
          <mxGeometry relative="1" as="geometry">
            <mxPoint x="365" y="230" as="sourcePoint" />
            <mxPoint x="365" y="290" as="targetPoint" />
          </mxGeometry>
        </mxCell>
        <mxCell id="gZ_beA-vXtJLZaEBM_sQ-23" value="" style="whiteSpace=wrap;html=1;aspect=fixed;" parent="1" vertex="1">
          <mxGeometry x="715" y="220" width="220" height="220" as="geometry" />
        </mxCell>
        <mxCell id="gZ_beA-vXtJLZaEBM_sQ-17" value="MongoDB&lt;br&gt;sh1 primary" style="shape=cylinder3;whiteSpace=wrap;html=1;boundedLbl=1;backgroundOutline=1;size=15;" parent="1" vertex="1">
          <mxGeometry x="745" y="280" width="60" height="80" as="geometry" />
        </mxCell>
        <mxCell id="fnRWYfsaQO0EPqaBbEek-39" style="edgeStyle=orthogonalEdgeStyle;rounded=0;orthogonalLoop=1;jettySize=auto;html=1;exitX=0;exitY=0.5;exitDx=0;exitDy=0;exitPerimeter=0;" parent="1" source="gZ_beA-vXtJLZaEBM_sQ-21" target="gZ_beA-vXtJLZaEBM_sQ-17" edge="1">
          <mxGeometry relative="1" as="geometry" />
        </mxCell>
        <mxCell id="gZ_beA-vXtJLZaEBM_sQ-21" value="MongoDB&lt;div&gt;sh1&lt;br&gt;secondary&amp;nbsp;&lt;/div&gt;" style="shape=cylinder3;whiteSpace=wrap;html=1;boundedLbl=1;backgroundOutline=1;size=15;" parent="1" vertex="1">
          <mxGeometry x="835" y="230" width="60" height="80" as="geometry" />
        </mxCell>
        <mxCell id="fnRWYfsaQO0EPqaBbEek-40" style="edgeStyle=orthogonalEdgeStyle;rounded=0;orthogonalLoop=1;jettySize=auto;html=1;exitX=0;exitY=0.5;exitDx=0;exitDy=0;exitPerimeter=0;" parent="1" source="gZ_beA-vXtJLZaEBM_sQ-22" target="gZ_beA-vXtJLZaEBM_sQ-17" edge="1">
          <mxGeometry relative="1" as="geometry" />
        </mxCell>
        <mxCell id="gZ_beA-vXtJLZaEBM_sQ-22" value="MongoDB&lt;div&gt;sh1&lt;br&gt;secondary&amp;nbsp;&lt;/div&gt;" style="shape=cylinder3;whiteSpace=wrap;html=1;boundedLbl=1;backgroundOutline=1;size=15;" parent="1" vertex="1">
          <mxGeometry x="835" y="340" width="60" height="80" as="geometry" />
        </mxCell>
        <mxCell id="gZ_beA-vXtJLZaEBM_sQ-25" value="Shard1" style="text;html=1;align=center;verticalAlign=middle;whiteSpace=wrap;rounded=0;" parent="1" vertex="1">
          <mxGeometry x="725" y="230" width="60" height="30" as="geometry" />
        </mxCell>
        <mxCell id="gZ_beA-vXtJLZaEBM_sQ-27" value="" style="whiteSpace=wrap;html=1;aspect=fixed;" parent="1" vertex="1">
          <mxGeometry x="715" y="467" width="220" height="220" as="geometry" />
        </mxCell>
        <mxCell id="gZ_beA-vXtJLZaEBM_sQ-28" value="MongoDB&lt;div&gt;sh2&lt;br&gt;primary&lt;/div&gt;" style="shape=cylinder3;whiteSpace=wrap;html=1;boundedLbl=1;backgroundOutline=1;size=15;" parent="1" vertex="1">
          <mxGeometry x="745" y="527" width="60" height="80" as="geometry" />
        </mxCell>
        <mxCell id="fnRWYfsaQO0EPqaBbEek-42" style="edgeStyle=orthogonalEdgeStyle;rounded=0;orthogonalLoop=1;jettySize=auto;html=1;exitX=0;exitY=0.5;exitDx=0;exitDy=0;exitPerimeter=0;" parent="1" source="gZ_beA-vXtJLZaEBM_sQ-29" target="gZ_beA-vXtJLZaEBM_sQ-28" edge="1">
          <mxGeometry relative="1" as="geometry" />
        </mxCell>
        <mxCell id="fnRWYfsaQO0EPqaBbEek-44" style="edgeStyle=orthogonalEdgeStyle;rounded=0;orthogonalLoop=1;jettySize=auto;html=1;exitX=0.5;exitY=1;exitDx=0;exitDy=0;exitPerimeter=0;startArrow=classic;startFill=1;" parent="1" source="gZ_beA-vXtJLZaEBM_sQ-29" target="gZ_beA-vXtJLZaEBM_sQ-30" edge="1">
          <mxGeometry relative="1" as="geometry" />
        </mxCell>
        <mxCell id="gZ_beA-vXtJLZaEBM_sQ-29" value="MongoDB&lt;div&gt;sh2&lt;br&gt;secondary&amp;nbsp;&lt;/div&gt;" style="shape=cylinder3;whiteSpace=wrap;html=1;boundedLbl=1;backgroundOutline=1;size=15;" parent="1" vertex="1">
          <mxGeometry x="835" y="477" width="60" height="80" as="geometry" />
        </mxCell>
        <mxCell id="gZ_beA-vXtJLZaEBM_sQ-30" value="MongoDB&lt;div&gt;sh2&lt;br&gt;secondary&amp;nbsp;&lt;/div&gt;" style="shape=cylinder3;whiteSpace=wrap;html=1;boundedLbl=1;backgroundOutline=1;size=15;" parent="1" vertex="1">
          <mxGeometry x="835" y="587" width="60" height="80" as="geometry" />
        </mxCell>
        <mxCell id="fnRWYfsaQO0EPqaBbEek-32" value="Shard2" style="text;html=1;align=center;verticalAlign=middle;whiteSpace=wrap;rounded=0;" parent="1" vertex="1">
          <mxGeometry x="725" y="477" width="60" height="30" as="geometry" />
        </mxCell>
        <mxCell id="fnRWYfsaQO0EPqaBbEek-41" style="edgeStyle=orthogonalEdgeStyle;rounded=0;orthogonalLoop=1;jettySize=auto;html=1;exitX=0.5;exitY=0;exitDx=0;exitDy=0;exitPerimeter=0;entryX=0.5;entryY=1;entryDx=0;entryDy=0;entryPerimeter=0;startArrow=classic;startFill=1;" parent="1" source="gZ_beA-vXtJLZaEBM_sQ-22" target="gZ_beA-vXtJLZaEBM_sQ-21" edge="1">
          <mxGeometry relative="1" as="geometry" />
        </mxCell>
        <mxCell id="fnRWYfsaQO0EPqaBbEek-43" style="edgeStyle=orthogonalEdgeStyle;rounded=0;orthogonalLoop=1;jettySize=auto;html=1;exitX=0;exitY=0.5;exitDx=0;exitDy=0;exitPerimeter=0;entryX=1;entryY=0.5;entryDx=0;entryDy=0;entryPerimeter=0;" parent="1" source="gZ_beA-vXtJLZaEBM_sQ-30" target="gZ_beA-vXtJLZaEBM_sQ-28" edge="1">
          <mxGeometry relative="1" as="geometry" />
        </mxCell>
      </root>
    </mxGraphModel>
  </diagram>
</mxfile>
